
<svg class="logi" xmlns="http://www.w3.org/2000/svg" width="135px" viewbox="0 0 547 172" height="50" fill="none" xmlns:v="https://vecta.io/nano"><path d="M418 173H1V1h547v172H418M378.995 40.998s-.041-.062.576-.261c.826-.704 1.652-1.408 3.166-1.965.763-.207 2.184-.397 2.19-.623.103-4.001 3.585-3.942 5.993-5.233 5.239-2.808 6.938-7.229 5.029-13.693-2.965-1.677-5.929-3.355-9.415-5.129-.173.034-.347.068-.987-.085-.161-.047-.322-.094-.958-.81-4.901-.401-9.912-1.598-14.669-.944-3.599.495-9.008-1.494-10.977 3.8-2.343.571-5.097 1.278-6.189 3.024-1.168 1.866-1.48 4.894-.92 7.098 1.689 6.637 7.814 7.789 13.424 10.206.029.195.059.39-.64.693l-1.241 1.078c1.197.205 2.393.409 3.883 1.224 1.273.886 2.546 1.773 4.131 3.359.86 4.33 3.468 8.889-2.399 12.327-3.663-.426-6.309.347-5.873 5.673-.068 1.055-.135 2.111-.781 3.682-.436 1.753-1.227 3.516-1.178 5.255.03 1.081 1.309 3.026 2.07 3.047 8.056.224 16.12.139 25.056.139l-3.335-11.577c-.052-.438-.105-.877-.033-2.116.332-5.148-3.249-4.099-6.842-4.4-3.394-3.792-2.602-8.243-1.532-12.794 0 0 .444-.184 1.043-.082.449-.313.898-.626 1.408-.894m-58.028 19.025s-.006.083-.034-.696c-3.436-3.133-6.917-3.277-10.337.08l-.183.185s-.238-.105-.901.411c-2.57 4.191-2.114 7.726 1.33 10.317 3.637 2.737 6.673 2.305 10.139-1.336 0 0-.105-.001.615-.128 2.178-3.139 3.358-6.198-.627-8.833m-8.011-34.065s-.094.001.524-.02c2.812-.913 5.916-1.081 6.771 2.149.47 1.774-1.04 4.306-2.153 6.206-1.424 2.431-3.347 4.57-5.066 6.741 0 0 .093-.007-.652.129-3.677 3.534-3.449 7.961-3.213 12.612h11.15l5.932-9.521 2.718-4.287s-.095.007.641-.116c1.779-3.778 4.607-7.464 4.948-11.368.209-2.387.599-7.022-3.59-8.45 0 0-.008.083.028-.661-5.395-8.097-21.451-8.755-28.436-.969 0 0-.354.068-.982.557-3.393 3.343-4.032 7.357-3.229 11.931h13.313l1.297-4.933m117.258 14.046c-.43.027-.859.053-2.164.057-11.514-.049-13.622 1.491-17.461 12.579-1.025 2.959-2.348 5.821-3.246 8.814-.433 1.443-.196 3.087-.361 5.348l-.626 7.59c1.929.862 3.647 1.836 5.492 2.398 1.979.603 4.077.818 6.161 1.698 0 0 .091.488-.02 1.224 1.533 1.331 3.025 3.754 4.606 3.814 9.685.365 19.391.201 29.09.2 2.43 0 4.403-.468 3.401-3.769 0 0-.074-.083.593-.349 2.035-.916 3.987-2.24 6.119-2.669 5.821-1.171 6.613-2.058 5.649-7.551-.253-1.442-.293-2.922.104-4.503-1.027-3.648-1.949-7.33-3.099-10.938-4.445-13.949-5.118-12.865-20.31-15.274-.153-.925-.306-1.85-.133-3.442 1.307-4.071 2.615-8.141 4.457-12.762 1.653-5.08 2.242-10.056-.829-14.925-1.526-2.419-2.537-5.292-6.287-2.942-.759.476-1.954.197-2.905.435-4.402 1.099-8.811 2.185-13.16 3.469-.689.203-1.629 1.48-1.529 2.115.603 3.824 1.475 7.606 2.152 12.233 1.431 3.706 2.861 7.413 4.171 11.758.259 1.791.519 3.582.134 5.393M106.738 54.681l.017-18.358c-4.886-11.219-13.842-17.376-25.669-17.036-10.293.296-18.918 5.339-23.832 16.036C55.065 41.216 55.1 47.146 57 53.859c2.401 4.018 4.803 8.036 7.086 12.855-.536 5.084 2.602 7.748 6.851 8.109 7.032.597 14.202.805 21.207.109 6.516-.647 7.835-3.057 7.958-10.452 1.983-3.125 3.966-6.249 6.636-9.799m32.71-24.611a26.05 26.05 0 0 1-.48 1.458c-.334.455-.669.91-1.51 1.537-.094.308-.188.615-.427 1.548-.022.427-.044.854-.573 1.452-.094.308-.188.615-.427 1.749.049 1.393.097 2.786-.002 4.864l1.948 3.352s-.058.03.026.77c2.333 5.345 4.666 10.69 6.384 16.343.21 9.457 2.642 7.918 9.664 7.759 5.715-.129 3.519-4.918 3.971-8.838 2.334-5.054 4.545-10.17 7.033-15.148 3.109-6.218 1.371-15.241-3.708-18.879-7.894-5.655-15.72-4.477-21.368 1.93 0 0-.025-.06-.531.104m130.774 96.395V136.8h10.997v-21.792c7.232 10.335 14.23 19.292 20.014 28.975 3.762 6.299 8.436 6.793 14.495 5.641V96.38h-10.86v33.646c-6.788-9.777-13.39-18.353-18.924-27.571-3.96-6.596-9.032-7.477-15.721-6.005v30.014m205.642-24.876c-2.999-7.068-8.848-5.828-14.499-5.347v40.576h10.726v-21.649c7.208 10.31 14.182 19.277 19.986 28.947 3.793 6.321 8.563 6.557 14.593 5.532V96.364h-10.694v34.127l-20.111-28.902m-120.652 46.358c12.212-6.324 16.34-16.719 14.746-29.806-1.223-10.047-6.536-17.708-16.066-20.83-9.57-3.136-19.35-2.529-27.355 4.912-9.318 8.662-11.183 24.517-4.397 35.784 6.465 10.735 18.898 14.648 33.072 9.939m51.714-27.835c-1.346 15.1 7.497 27.517 21.131 29.673 15.137 2.393 27.297-6.272 30.52-21.749 2.984-14.327-6.576-30.073-19.826-31.915-19.346-2.69-30.058 8.025-31.826 23.991M27.364 139.056l-6.586.852v-11.552H10.301v21.272c5.865 0 11.53.534 17.063-.093 23.072-2.615 27.257-21.272 22.713-37.045-2.158-7.49-6.869-12.819-14.336-14.344-8.27-1.689-16.813-2.042-25.669-3.025v11.774 10.781h10.836v-11.467c11.285-.773 18.177 4.269 19.744 14.117 1.59 9.986-2.437 16.035-13.288 18.73m59.751-30.419l10.354-12.651c-3.278 0-5.622.248-7.893-.055-4.016-.536-6.667.856-9.128 4.16-4.988 6.698-10.478 13.024-16.634 20.574v-24.26h-10.25v50.358l14.454-16.208c3.732 4.606 7.778 8.491 10.463 13.159 4.587 7.976 11.344 6.588 19.13 5.859l-22.359-26.278 11.862-14.659m135.015 41.372c7.018-1.488 1.307-6.669 4.154-10.019-4.138 0-6.959.124-9.765-.034-2.963-.167-5.908-.637-8.867-.916-6.123-.576-11.301-5.029-12.589-10.878-2.963-13.454 5.399-23.004 19.881-21.955v11.547h10.345v-21.69c-6.208 0-12.457-.78-18.432.166-11.594 1.836-19.58 6.015-22.39 19.654-.693 3.366-.516 6.962-.381 10.439.41 10.552 6.624 19.019 16.912 21.487 6.534 1.567 13.454 1.521 21.133 2.198m286.861-3.692c.648 1.227 1.262 3.499 1.948 3.52 7.917.25 15.844.16 23.754.16v-10.609h-14.801v-11.477h21.603l.439-10.041H519.82v-12.132h14.924v-9.49h-25.753v50.07m-338.508-18.404h11.807v-10.047h-21.528v-11.921h14.922v-9.638h-25.34v53.463h25.26v-10.373h-14.654v-11.483h9.533m67.428 18.414v-5.982h20.381v9.303h10.258V96.2h-10.556v33.379h-30.675v20.43c2.911 0 5.566.236 8.138-.126.922-.13 1.641-1.701 2.453-3.556m154.201-17.311l13.467-33.026c-10.795 0-20.748-.006-30.702.011-.784.001-1.567.16-2.613.275l.56 9.833h17.055l-9.32 23.572c4.117 0 7.58 0 11.553-.665m-265.084 13.404v7.312h10.615v-34.406h-10.615v27.094M245.418 24.131l-.886 2.802-12.002 36.259c-.506 1.614.739 3.776 1.173 5.684 1.739-.92 4.56-1.454 5.049-2.821 4.615-12.908 8.904-25.936 13.041-39.008.365-1.154-.646-3.377-1.709-4.143-.799-.576-2.708.388-4.665 1.225M376.8 150.002h28.296l.441-9.768h-29.257l-2.968 7.232c-1.064 2.735.841 2.569 3.489 2.535M227.719 57.29l-12.435-10.615c4.829-4.603 8.431-7.606 11.416-11.133.948-1.121.252-3.633.308-5.509-1.723.211-3.998-.204-5.073.744-4.23 3.728-8.02 7.95-12.098 11.857-2.436 2.334-2.499 4.338-.037 6.695 3.96 3.791 7.674 7.844 11.72 11.537 1.085.991 3.325 1.839 4.432 1.361 1.068-.462 1.359-2.722 1.767-4.936m-80.524 48.007l2.317-9.01h-33.273v9.025l30.957-.015m108.201-47.149c.639 1.506 1 3.279 2.06 4.379.397.412 2.745-.398 3.647-1.244 4.244-3.983 8.514-7.988 12.268-12.414.985-1.161.992-4.57.011-5.728-3.753-4.427-7.963-8.503-12.311-12.362-.984-.874-3.209-.349-4.863-.468.191 1.653-.226 3.85.68 4.861 3.292 3.671 7.027 6.946 11.108 10.862l-12.599 12.114m-28.335 53.268v7.904h10.635V96.287H227.06v15.13M152.295 72h-5.17l-.571 1.874c1.575.708 3.206 2.075 4.711 1.95 1.721-.144 3.33-1.616 4.988-2.511l-.651-1.179-3.307-.134z"/><path fill="#f8d700" d="M270.221 125.969V96.451c6.689-1.472 11.762-.591 15.721 6.005 5.534 9.218 12.136 17.794 18.924 27.571V96.38h10.86v53.244c-6.059 1.152-10.732.658-14.495-5.641-5.784-9.683-12.782-18.64-20.014-28.975V136.8h-10.997v-10.831z"/><path d="M476.047 101.902l19.928 28.588V96.364h10.694v53.283c-6.03 1.025-10.799.789-14.593-5.532-5.804-9.669-12.778-18.636-19.986-28.947v21.649h-10.726V96.242c5.651-.481 11.5-1.721 14.682 5.661zm-121.208 46.163c-13.801 4.591-26.234.677-32.7-10.057-6.786-11.267-4.92-27.123 4.397-35.784 8.005-7.442 17.785-8.048 27.355-4.912 9.53 3.123 14.843 10.783 16.066 20.83 1.593 13.087-2.534 23.481-15.119 29.924m3.594-32.668c-2.279-5.499-6.165-8.972-12.255-9.515-12.481-1.114-20.592 10.46-16.373 23.31 2.285 6.957 7.643 10.905 14.716 10.841 7.021-.063 12.983-4.242 14.395-11.258.816-4.054-.017-8.441-.484-13.378zm48.525 4.3c1.736-15.552 12.448-26.268 31.794-23.578 13.249 1.842 22.809 17.588 19.826 31.915-3.223 15.477-15.383 24.142-30.52 21.749-13.634-2.156-22.477-14.573-21.099-30.087m24.729-13.879c-9.096 1.103-15.024 8.192-14.661 17.532.366 9.414 6.629 16.399 14.953 16.675 9.241.306 15.757-5.918 16.256-15.527.587-11.32-5.067-18.074-16.548-18.68zM27.783 139.044c10.432-2.682 14.458-8.731 12.869-18.717-1.568-9.848-8.459-14.89-19.744-14.117v11.467H10.071v-10.781V95.12c8.856.983 17.399 1.336 25.669 3.025 7.468 1.526 12.178 6.854 14.336 14.344 4.544 15.773.358 34.43-22.713 37.045-5.533.627-11.198.093-17.063.093v-21.272h10.478v11.552l7.005-.864z" fill="#f9d700"/><path fill="#f7d600" d="M86.902 108.92l-11.648 14.376 22.359 26.278c-7.786.728-14.544 2.116-19.13-5.859-2.684-4.668-6.73-8.553-10.463-13.159l-14.454 16.208V96.405h10.25v24.26c6.157-7.551 11.646-13.876 16.634-20.574 2.46-3.304 5.111-4.695 9.128-4.16 2.27.303 4.614.055 7.893.055L86.902 108.92z"/><path d="M221.664 150.009c-7.213-.677-14.133-.631-20.667-2.198-10.288-2.468-16.502-10.935-16.912-21.487-.135-3.477-.312-7.073.381-10.439 2.809-13.638 10.796-17.818 22.39-19.654 5.975-.946 12.224-.166 18.432-.166v21.69h-10.345v-11.547c-14.481-1.049-22.844 8.5-19.881 21.955 1.288 5.85 6.466 10.303 12.589 10.878 2.959.278 5.904.748 8.867.916 2.805.158 5.627.034 9.765.034-2.848 3.35 2.864 8.531-4.62 10.019zm287.327-4.174V96.248h25.753v9.49H519.82v12.132h22.114l-.439 10.041h-21.603v11.477h14.801v10.609c-7.91 0-15.837.091-23.754-.16-.686-.022-1.3-2.294-1.948-4.003zm-339.002-17.922h-9.038v11.483h14.654v10.373h-25.26V96.307h25.34v9.638h-14.922v11.921h21.528v10.047H169.99z" fill="#fad800"/><path fill="#f6d500" d="M237.91 146.798c-.812 1.384-1.531 2.956-2.453 3.086-2.572.362-5.227.126-8.138.126v-20.43h30.675V96.2h10.556v53.449h-10.258v-9.303h-20.381v6.452z"/><path fill="#abafad" d="M418.099 78.977s-.091-.488.094-1.004c-.223-3.71-.631-6.904-.839-10.387-.12-4.24-.439-8.19-.837-13.108l39.854.176c.574.99.995 1.806.988 2.618-.037 4.124-.184 8.247-.529 12.717-.763 3.526-1.29 6.706-1.817 9.886 0 0 .074.083-.358.12-6.829.033-13.23.162-19.622-.015-5.649-.157-11.289-.655-16.932-1.002z"/><path fill="#e8d738" d="M302.203 18.471a.54.54 0 0 1 .553.28c4.352-1.002 8.434-2.659 12.673-3.628 6.02-1.377 10.739 2.099 15.528 4.994 0 0 .008-.083-.253.271 2.957 6.543 3.252 12.484-1.673 18.041-.279.315-.116 1.021-.159 1.545 0 0 .095-.007-.205-.317-3.7 3.88-7.101 8.071-10.996 12.87h-7.136l2.591-11.5s-.093.007.201.327c2.201-1.512 4.613-3.053 5.883-5.253 1.47-2.546 2.592-5.679 2.557-8.541-.017-1.4-2.818-3.293-4.708-3.932-1.019-.345-2.774 1.483-4.196 2.331 0 0 .094-.001-.216-.361-2.941 5.264-7.502 4.851-13.085 3.621l2.016-7.202c.297-1.159.423-2.362.626-3.545z"/><path fill="#f9d700" d="M391.857 129.349c-3.718.332-7.181.332-11.298.332l9.32-23.572h-17.055l-.56-9.833c1.045-.114 1.829-.273 2.613-.275l30.702-.011-13.722 33.358z"/><path fill="#f8c85e" d="M365.347 36.968l-.161-1.203-2.199-5.077-2.048-10.099c-.437-5.007 2.829-5.516 6.055-5.591 5.621-.131 11.25.042 16.908.293.033.205.126.61.106.837s-.036.682-.438.811c-.797 1.762-1.34 3.375-1.556 5.03-.442 3.382-.708 6.786-1.021 10.543.438 1.437.85 2.513 1.184 3.816-.078.227-.236.681-.597.71-1.116 1.318-1.871 2.607-2.626 3.897 0 0 .041.062-.266.048-.771.259-1.235.533-1.7.807 0 0-.444.184-1.092.218l-4.818.029c-1.273-.887-2.546-1.773-3.947-3.245-.681-.999-1.233-1.412-1.785-1.825z"/><path fill="#242526" d="M456.019 54.477h-39.503c.398 4.918.717 8.868.611 12.818l-10.047-1.202c.066-1.553-.17-3.197.262-4.64.898-2.993 2.222-5.855 3.246-8.814 3.84-11.088 5.947-12.628 17.982-12.235 2.556 4.423 6.16 6.039 10.41 7.071-.593 4.668 1.557 5.6 5.402 5.608 3.88.008 7.757.893 11.636 1.394z"/><path fill="#fd0" d="M139.919 29.939c5.707-6.38 13.532-7.559 21.426-1.903 5.079 3.639 6.817 12.661 3.708 18.879-2.488 4.977-4.699 10.093-7.341 15.674-4.442.432-8.577.338-12.712.243-2.333-5.345-4.666-10.69-6.676-16.353 6.489 4.169 11.966 2.339 17.663-1.649 4.127-2.889 5.732-6.563 4.59-11.046-1.134-4.453-4.572-7.187-9.308-6.668-3.84.42-7.571 1.844-11.35 2.822z"/><path fill="#ffe700" d="M139.949 29.953c3.75-.992 7.481-2.415 11.321-2.836 4.736-.518 8.174 2.215 9.308 6.668 1.142 4.483-.463 8.157-4.59 11.046-5.697 3.987-11.174 5.818-17.705 1.279-.364-.051-.307-.081-.312-.414-.602-1.456-1.199-2.581-1.796-3.705-.049-1.393-.097-2.786.093-4.748.447-.797.6-1.058.696-1.351.022-.427.044-.854.304-1.749.447-.696.6-.957.696-1.25.334-.455.669-.91 1.271-1.789.474-.649.624-.907.718-1.197 0 0 .025.06-.005.046z"/><path fill="#f1ba8c" d="M430.202 33.972c-1.431-3.706-2.861-7.413-3.891-11.56 1.044-1.033 2.045-1.518 2.262-2.238.606-2.011.887-4.119 1.347-6.448 1.562.617 2.309 1.191 3.021 1.15 6.711-.391 13.413-.88 14.993 8.143-1.307 4.071-2.615 8.141-4.434 12.575-2.474 1.169-4.436 1.976-6.738 2.667-2.413-1.506-4.486-2.898-6.558-4.289z"/><path fill="#f6d500" d="M127.028 141.931v-26.605h10.615v34.406h-10.615v-7.801z"/><path fill="#191818" d="M456.37 54.654c-4.23-.677-8.107-1.562-11.987-1.57-3.845-.008-5.996-.941-5.148-5.847 2.664-2.381 7.615-2.194 5.331-7.584.009-.151.046-.452.046-.452 14.724 1.881 15.397.798 19.842 14.746 1.15 3.609 2.072 7.29 2.426 10.972-4.301.464-8.056.649-9.815 4.724l.293-12.37c.007-.812-.413-1.627-.988-2.618z"/><path fill="#01c773" d="M245.689 23.852c1.686-.558 3.595-1.522 4.394-.946 1.063.766 2.074 2.988 1.709 4.143-4.136 13.071-8.426 26.099-13.041 39.008-.489 1.367-3.31 1.901-5.049 2.821-.434-1.908-1.679-4.071-1.173-5.684 3.808-12.147 7.961-24.186 12.002-36.259.311-.929.592-1.868 1.157-3.081z"/><path fill="#fddb00" d="M376.339 150.002c-2.187.034-4.092.2-3.028-2.535l2.968-7.232h29.257l-.441 9.768c-9.472 0-18.884 0-28.756 0z"/><path fill="#01c773" d="M227.831 57.662c-.52 1.842-.811 4.103-1.879 4.564-1.108.479-3.347-.37-4.432-1.361-4.046-3.693-7.76-7.746-11.72-11.537-2.461-2.356-2.399-4.36.037-6.695 4.078-3.908 7.868-8.129 12.098-11.857 1.075-.947 3.35-.533 5.073-.744-.056 1.876.64 4.388-.308 5.509-2.985 3.526-6.587 6.53-11.416 11.133l12.547 10.987z"/><path fill="#fddb00" d="M146.719 105.305l-30.482.007v-9.025h33.273l-2.792 9.018z"/><path fill="#2e1c16" d="M448.2 22.744c-1.848-8.748-8.549-8.259-15.26-7.868-.711.041-1.459-.533-3.021-1.15-.46 2.329-.741 4.437-1.347 6.448-.217.721-1.218 1.205-2.209 1.823-1.13-3.771-2.002-7.552-2.605-11.377-.1-.635.84-1.912 1.529-2.115 4.349-1.284 8.758-2.37 13.16-3.469.952-.238 2.146.041 2.905-.435 3.75-2.349 4.761.523 6.287 2.942 3.07 4.869 2.481 9.845.561 15.2z"/><path fill="#01c773" d="M255.654 57.888l12.341-11.854c-4.081-3.916-7.816-7.191-11.108-10.862-.906-1.011-.49-3.208-.68-4.861 1.654.119 3.879-.406 4.863.468 4.348 3.859 8.558 7.935 12.311 12.362.982 1.158.974 4.567-.011 5.728-3.754 4.427-8.023 8.431-12.268 12.414-.902.846-3.25 1.656-3.647 1.244-1.06-1.1-1.421-2.873-1.801-4.64z"/><path fill="#f4d300" d="M227.06 110.928V96.287h10.635v23.034H227.06v-8.393z"/><path fill="#3d3c3a" d="M99.794 65.169c.186 6.706-1.134 9.115-7.649 9.763-7.006.696-14.175.488-21.207-.109-4.249-.361-7.387-3.025-6.45-8.487 2.43.647 4.459 1.673 6.725 2.99 8.955 3.958 17.25 3.408 25.338-2.235 1.281-.666 2.262-1.293 3.243-1.921z"/><path fill="#ff4605" d="M57.888 34.958c4.28-10.332 12.905-15.376 23.198-15.671 11.828-.34 20.783 5.817 25.382 17.442a9.75 9.75 0 0 1-2.904 1.351c-.188-.028-.566-.081-.566-.442-.389-1.47-.778-2.58-1.24-3.999-1.257-1.764-2.441-3.217-3.772-4.959-1.357-1.106-2.566-1.923-3.962-3.047-8.338-3.372-16.445-4.596-24.722.295-1.369 1.026-2.422 2.029-3.781 3.171-1.536 2.052-2.766 3.965-4.169 6.005-.336.365-.468.62-.872.835-1.066-.364-1.829-.671-2.592-.979z"/><path fill="#c6722f" d="M363.049 31.076l2.045 4.409c-5.445-1.518-11.571-2.67-13.259-9.307-.561-2.204-.248-5.232.92-7.098 1.093-1.746 3.847-2.452 6.189-3.024 1.969-5.295 7.378-3.306 10.977-3.8 4.757-.654 9.767.543 14.742 1.514-.216.819-.505 1.068-.794 1.317l-16.875-.088c-3.225.075-6.492.585-6.368 5.436-2.047-.004-3.809-.629-5.434-.376-.825.128-2.057 1.896-1.976 2.824.288 3.303 5.683 7.573 9.834 8.193z"/><path fill="#ff6201" d="M70.976 69.034l-6.429-3.099c-2.744-4.04-5.145-8.058-7.407-12.743 1.398-2.203 2.655-3.74 4.192-5.1 2.355 2.094 4.43 4.012 6.565 6.275.79 1.759 1.521 3.172 1.909 4.611-.844 1.027-1.345 2.028-1.795 3.318.369.76.687 1.232 1.138 1.967.725 1.042 1.316 1.822 1.892 2.963l-.066 1.807z"/><path fill="#535657" d="M418.043 79.345c5.699-.02 11.339.478 16.988.635 6.392.177 12.793.048 19.596.064 1.461 3.216-.512 3.683-2.943 3.683-9.699.001-19.405.166-29.09-.2-1.581-.06-3.073-2.483-4.551-4.182z"/><path fill="#374062" d="M385.009 61.943l3.277 10.917c-8.936 0-17 .085-25.056-.139-.761-.021-2.039-1.967-2.07-3.047-.049-1.739.742-3.502 1.709-5.209.946 3.731 3.068 4.908 6.622 4.571 2.788-.265 5.622-.05 8.435-.053 6.993-.007 6.993-.008 7.084-7.04z"/><path fill="#b5876a" d="M456.829 69.988c1.995-4.422 5.75-4.606 9.783-5.011.543 1.489.583 2.968.836 4.41.964 5.493.171 6.381-5.649 7.551-2.132.429-4.085 1.753-6.453 2.802.193-3.047.72-6.227 1.483-9.753z"/><path fill="#3e444d" d="M384.98 61.613c-.062 7.362-.062 7.363-7.055 7.369-2.813.003-5.647-.211-8.435.053-3.554.337-5.675-.839-6.333-4.829-.174-1.359-.106-2.414.469-3.856 7.394-.385 14.281-.384 21.167-.383l.186 1.645m-11.539.272h-6.205l-.902 1.426c.971 1.517 1.632 3.93 2.967 4.392 5.078 1.754 7.712.169 10.494-5.683-1.915-.087-3.681-.168-6.354-.135z"/><path fill="#b5876a" d="M407.031 66.448c3.257.047 6.464.447 9.897 1.137.634 3.483 1.041 6.677 1.245 10.14-2.249-.116-4.347-.331-6.326-.934-1.844-.562-3.563-1.536-5.492-2.398l.675-7.944z"/><path fill="#ff6201" d="M99.948 64.825c-1.135.972-2.116 1.599-3.699 2.123-1.203-.393-1.804-.682-2.263-1.219l1.215-1.914c.41-.729.596-1.27.993-2.037-.283-1.456-.777-2.686-1.225-4.293.42-2.07.794-3.763 1.509-5.489l5.554-2.708 4.018 5.818-6.103 9.719z"/><path fill="#dece37" d="M310.175 59.487c0 0 .238.105.238.105s.183-.185.483.072c3.555.319 6.811.381 10.067.442 0 0 .006-.083-.322.22-.14 3.087.047 5.872.235 8.657 0 0 .105.001-.203-.37-3.074-.213-6.691 1.058-8.359-.218-1.576-1.206-1.086-5.092-1.549-7.792-.068-.394-.386-.745-.588-1.115z"/><path fill="#c1b7a6" d="M144.693 62.987l13.009-.012c-.134 3.007 2.063 7.797-3.652 7.926-7.022.159-9.454 1.698-9.357-7.914z"/><path fill="#c17539" d="M371.236 42.388c1.234-.348 2.624-.346 4.43-.314-.191 4.452-.983 8.903 2.664 13.262-1.833 3.769-7.324 4.676-9.527 2.065-.231-.273.618-1.458.966-2.219 5.091-3.554 2.483-8.113 1.467-12.793z"/><path fill="#bb6d31" d="M381.941 37.01a3.76 3.76 0 0 1 .471-.882l3.976-5c4.985-1.797 8.008-4.686 7.846-10.132.82-.397 1.329-.741 1.838-1.085 1.787 5.777.087 10.197-5.152 13.006-2.407 1.291-5.889 1.232-5.993 5.233-.006.226-1.427.416-2.584.284-.397-.701-.4-1.062-.403-1.423z"/><path fill="#ff5101" d="M106.394 54.893c-1.661-1.615-2.979-3.442-4.246-5.85.274-1.072.498-1.563.814-2.396l.885-4.165-.095-4.375 2.75-1.03c.293 5.83.265 11.716-.107 17.815z"/><path fill="#424678" d="M369.381 55.122c.04.82-.809 2.004-.579 2.277 2.203 2.611 7.694 1.704 9.818-1.842 3.049-.49 6.631-1.539 6.236 4.01-6.949.399-13.835.398-21.172.39-1-4.546 1.646-5.319 5.697-4.835z"/><path fill="#ff5101" d="M61.053 47.916l-3.934 4.901c-2.019-5.67-2.054-11.6.452-17.676 1.08.125 1.843.433 2.904 1.181.084 2.491-.129 4.541-.383 6.962.294 1.791.628 3.211.961 4.632z"/><path d="M312.753 41.095c-.452 3.592-1.276 7.251-2.218 11.432h7.136c3.895-4.799 7.296-8.989 10.991-12.917-.608 1.724-1.507 3.186-2.414 4.645l-5.932 9.521h-11.15c-.236-4.651-.464-9.078 3.586-12.681zm18.222-21.35c-4.807-2.523-9.525-5.999-15.546-4.622-4.24.97-8.322 2.626-12.718 3.529 6.831-8.034 22.887-7.376 28.264 1.093z" fill="#0a98d5"/><path fill="#d2ad64" d="M386.031 31.185l-3.541 4.716c-.648-.875-1.06-1.951-1.103-3.387a209.4 209.4 0 0 0 4.43-14.549c.055-.206-1.201-.762-1.846-1.155 0 0 .017-.455.324-.728a50.04 50.04 0 0 0 1.719-1.884c.173-.034.347-.068.784.305.295 2.8.327 5.193.305 8.003l-1.073 8.679z"/><path fill="#101011" d="M444.557 39.803c2.293 5.239-2.657 5.052-5.323 7.006-4.503-.366-8.107-1.982-10.225-6.393.346-.359.776-.385 1.72-.121 2.824 2.781 5.294 4.772 9.262 2.91 1.716-1.197 3.141-2.299 4.566-3.402z"/><path d="M313.172 25.948c1.114-.837 2.868-2.665 3.887-2.321 1.89.639 4.69 2.532 4.708 3.932.035 2.862-1.087 5.996-2.557 8.541-1.27 2.2-3.682 3.741-5.878 5.3 1.419-2.538 3.342-4.677 4.766-7.108 1.113-1.9 2.623-4.432 2.153-6.206-.855-3.23-3.959-3.062-7.08-2.139zm-11.283-7.232c.111.939-.015 2.142-.312 3.301l-2.016 7.202c5.583 1.23 10.144 1.643 13.083-3.668-.12 1.978-.548 3.642-.984 5.34h-13.313c-.803-4.573-.165-8.587 3.543-12.175z" fill="#0a98d5"/><path fill="#c49474" d="M439.699 43.3c-3.676 1.767-6.147-.224-8.649-3.015-.452-2.092-.711-3.883-.91-5.993 2.133 1.072 4.206 2.463 6.6 4.334l2.958 4.674z"/><path fill="#0a98d5" d="M309.843 59.745c.534.113.853.464.92.858.464 2.7-.026 6.586 1.549 7.792 1.668 1.276 5.286.005 8.359.166-3.158 4.065-6.193 4.496-9.83 1.76-3.444-2.591-3.9-6.126-.998-10.575z"/><path fill="#b5876a" d="M439.991 43.205c-1.17-1.303-2.049-2.702-2.91-4.464 1.981-1.171 3.943-1.977 6.254-2.813.502.896.655 1.82 1.042 3.009.234.264.197.565.188.716-1.434 1.253-2.859 2.355-4.575 3.553z"/><path fill="#c17539" d="M387.157 22.088l-.098-7.537c2.961 1.319 5.926 2.996 8.951 5.017-.448.687-.957 1.031-2.059 1.247-3.636-3.979-4.887.102-6.795 1.273z"/><path fill="#0a98d5" d="M329.24 39.913c-.325-.463-.487-1.169-.208-1.484 4.925-5.558 4.629-11.498 1.631-18.044 4.492 1.076 4.102 5.712 3.893 8.099-.341 3.904-3.169 7.59-5.316 11.429z"/><path fill="#c1b7a6" d="M152.728 72l2.874.133.651 1.179c-1.658.895-3.268 2.367-4.988 2.511-1.506.126-3.136-1.242-4.711-1.95l.571-1.874h5.603z"/><path d="M320.947 59.717c-3.241.328-6.497.266-10.107-.17 3.176-3.497 6.656-3.352 10.107.17zm.287 9.202c-.547-2.721-.735-5.506-.636-8.595 4.355 2.333 3.174 5.392.636 8.595z" fill="#0a98d5"/><path fill="#d2ad64" d="M381.58 37.039c.364.332.367.693.42 1.32-.776.97-1.602 1.674-2.737 2.477.446-1.19 1.201-2.479 2.317-3.797z"/><path fill="#c6722f" d="M364.983 37.022c.916.359 1.468.772 2.002 1.466-1.215.076-2.411-.129-3.608-.333.414-.359.828-.719 1.606-1.132z"/><path fill="#fd0" d="M136.101 42.334c.671.782 1.267 1.906 1.854 3.391-.649-.776-1.289-1.912-1.854-3.391z"/><path fill="#c17539" d="M385.781 14.104c-.237.63-.708 1.167-1.466 1.751-.288.047-.381-.358-.414-.563.257-.454.546-.703.999-1.187.325-.188.486-.141.88 0z"/><path fill="#d2ad64" d="M377.288 41.841c.165-.325.629-.598 1.37-.88-.172.305-.622.618-1.37.88z"/><path d="M137.71 32.978c.158.208.005.469-.369.853-.072-.152.022-.459.369-.853zm-1 3c.157.208.005.469-.37.853-.072-.152.022-.459.37-.853zm2.99-5.99c.159.209.009.467-.362.846-.073-.152.018-.458.362-.846z" fill="#fd0"/><path fill="#030300" d="M358.621 115.747c.279 4.587 1.112 8.973.296 13.028-1.412 7.016-7.374 11.196-14.395 11.258-7.074.063-12.432-3.884-14.716-10.841-4.22-12.85 3.892-24.423 16.373-23.31 6.09.543 9.977 4.016 12.443 9.865m-15.018 2.248c-3.72.185-5.184 2.772-4.27 5.688.569 1.817 3.443 4.314 4.93 4.096 1.988-.291 4.801-2.702 5.151-4.592.508-2.744-1.324-5.378-5.811-5.192z"/><path fill="#030200" d="M432.117 105.79c11.051.635 16.705 7.389 16.117 18.709-.499 9.61-7.015 15.834-16.256 15.527-8.324-.276-14.588-7.261-14.953-16.675-.363-9.34 5.565-16.429 15.092-17.562m-1.082 12.247c-3.266 1.508-4.583 4.307-2.715 7.15 1.029 1.566 4.364 2.936 6.013 2.401 1.63-.529 3.338-3.527 3.425-5.512.156-3.585-2.767-4.387-6.723-4.039z"/><path d="M362.987 30.689c-4.088-.233-9.484-4.503-9.771-7.806-.081-.928 1.151-2.695 1.976-2.824 1.625-.253 3.387.372 5.405.788.985 3.255 1.656 6.355 2.39 9.841z"/><path fill="#fffdfc" d="M383.57 16.939c1.047.263 2.302.819 2.247 1.025-1.267 4.753-2.677 9.467-4.455 14.187-.056-3.396.21-6.801.652-10.183.216-1.656.76-3.269 1.556-5.03z"/><path fill="#fa7705" d="M93.843 65.976l2.106 1.01c-7.486 5.747-15.781 6.297-24.736 2.339-.221-.773-.204-1.255.168-2.051 1.261-.291 2.166-.268 3.258.146 5.187.407 10.187.424 15.501.374 1.443-.65 2.573-1.234 3.703-1.818z"/><path fill="#ffbb9e" d="M98.133 28.968c1.183 1.454 2.367 2.907 3.166 4.681-3.875.33-7.365.339-11.114.115-5.346-.826-10.428-1.468-15.522-1.996-3.341-.346-5.71 1.033-7.222 4.279l-5.916-1.071c1.229-1.913 2.459-3.827 4.475-5.864l32.134-.144z"/><path fill="#ffd2bf" d="M97.985 28.679c-10.301.295-20.749.302-31.678.294.573-1.017 1.626-2.02 3.489-3.021l24.415-.013c1.209.817 2.418 1.635 3.775 2.741z"/><path fill="#ff925e" d="M103.564 38.08c.229 1.354.27 2.679-.144 4.432-2.784.45-5.113.471-7.827.416-3.805.05-5.264-1.46-3.963-4.906l11.369-.024.566.081z"/><path fill="#ffe1d6" d="M94.024 25.632c-7.682.311-15.55.316-23.912.296 7.468-4.893 15.575-3.669 23.912-.296z"/><path fill="#ff925e" d="M61.351 35.102c2.013.221 3.853.568 6.114 1.38.394 2.498.367 4.532-.088 6.555l-7.246-.124.647-6.536c.106-.655.237-.91.574-1.275z"/><path fill="#ffa074" d="M102.997 37.637c-3.639.367-7.279.373-11.434-.021-.717-1.473-.918-2.546-1.119-3.619l10.93-.039c.846 1.099 1.235 2.208 1.624 3.679z"/><path fill="#fffdfc" d="M90.185 33.764c.46 1.306.661 2.379.929 3.859-.786 3.846.673 5.355 4.495 5.706.447 1.545.493 2.612.47 4.094l.06 4.606-1.527 5.606c-8.322 3.887-16.393 2.58-24.462 1.318-.731-1.413-1.461-2.826-2.172-5.038l-.173-10.866.059-6.537c1.09-3.71 3.46-5.089 6.8-4.743 5.094.527 10.176 1.169 15.522 1.996m-15.122 17.84c4.037 2.47 11.567 1.996 14.064-1.35-4.921-1.354-9.48-2.471-14.064 1.35m3.545-12.945l-3.394 1.27c.33.642.621 1.811.996 1.839 2.315.172 4.649.086 6.977.086l.132-2.22c-1.27-.325-2.541-.65-4.711-.975z"/><path fill="#ff9a47" d="M74.453 67.029l-3.056-.116c-.932-.827-1.523-1.606-1.781-2.641 8.676-.26 17.019-.265 25.362-.269l-.992 1.726c-1.272.833-2.402 1.417-4.164 1.832-5.545-.29-10.457-.41-15.369-.531z"/><path fill="#ff7a16" d="M69.806 58.979c8.412 1.237 16.483 2.544 24.759-.966.852 1.079 1.345 2.309 1.162 3.766-9.707.228-18.737.229-27.767.23.501-1.001 1.003-2.003 1.846-3.03z"/><path fill="#ff7b33" d="M67.377 43.038c.491 3.367.555 6.723.54 10.531-2.155-1.465-4.23-3.382-6.585-5.476-.613-1.597-.946-3.018-1.24-4.808 2.312-.333 4.586-.295 7.286-.246z"/><path fill="#ff7e29" d="M68.011 62.297c8.979-.289 18.009-.29 27.506-.293.28.54.093 1.081-.316 1.81l-25.718.194c-.785-.479-1.102-.951-1.471-1.712z"/><path fill="#e0d4b7" d="M373.894 61.828l5.9.192c-2.782 5.852-5.417 7.438-10.494 5.683-1.335-.461-1.996-2.875-2.967-4.392l.902-1.426 6.659-.057z"/><path fill="#ff7e29" d="M96.479 51.996c-.384-1.363-.427-2.76.022-4.574 2.451-.422 4.41-.427 6.369-.432l-.787 1.718c-1.831 1.248-3.547 2.251-5.604 3.288z"/><path d="M387.104 22.505c1.961-1.588 3.212-5.67 6.537-1.637.755 5.574-2.268 8.463-7.253 10.26-.017-2.697.323-5.451.715-8.622z"/><path fill="#ff7b33" d="M102.962 46.647c-2.051.347-4.01.352-6.392.359-.468-1.065-.514-2.132-.576-3.601 2.313-.423 4.642-.444 7.399-.495.172 1.112-.083 2.253-.431 3.737z"/><path fill="#f6d500" d="M344.006 117.993c4.084-.185 5.915 2.45 5.407 5.193-.35 1.891-3.162 4.301-5.151 4.592-1.487.218-4.361-2.279-4.93-4.096-.914-2.916.55-5.503 4.673-5.69z"/><path fill="#f4d300" d="M431.435 118.014c3.555-.325 6.478.477 6.322 4.062-.086 1.984-1.795 4.983-3.425 5.512-1.649.535-4.984-.835-6.013-2.401-1.868-2.843-.551-5.642 3.115-7.173z"/><path fill="#ffb879" d="M74.639 67.42c4.726-.271 9.638-.15 14.869.205-4.682.219-9.682.203-14.869-.205z"/><path fill="#ff7e29" d="M75.074 51.168c4.573-3.384 9.131-2.268 14.052-.913-2.497 3.346-10.027 3.82-14.052.913z"/><path fill="#ff925e" d="M79.058 38.659l4.261.975-.132 2.22c-2.328 0-4.662.086-6.977-.086-.375-.028-.666-1.197-.996-1.839l3.844-1.27z"/></path></path></path></path></path></path></path></path></path></path></path></path></path></path></path></path></path></path></path></path></path></path></path></path></path></path></path></path></path></path></path></path></path></path></path></path></path></path></path></path></path></path></path></path></path></path></path></path></path></path></path></path></path></path></path></path></path></path></path></path></path></path></path></path></path></path></path></path></path></path></path></path></path></path></path></path></path></path></path></path></path></path></svg>